<?xml version="1.0" encoding="utf-8"?>
<!-- Generator: Adobe Illustrator 22.1.0, SVG Export Plug-In . SVG Version: 6.00 Build 0)  -->
<svg version="1.1" id="Layer_1" xmlns="http://www.w3.org/2000/svg" xmlns:xlink="http://www.w3.org/1999/xlink" x="0px" y="0px"
	 viewBox="0 0 512 512" style="enable-background:new 0 0 512 512;" xml:space="preserve">
<g>
	<path d="M396.6,312.2h-84.4c-15.5,0-28.1-12.7-28.1-28.1s12.7-28.1,28.1-28.1h84.4c0,0,84.4-94,84.4-140.6S443.2,31,396.6,31
		s-84.4,37.8-84.4,84.4c0,22.4,19.5,55.7,39.8,84.4h-39.8c-46.5,0-84.4,37.9-84.4,84.4s37.9,84.4,84.4,84.4h84.4
		c15.5,0,28.1,12.7,28.1,28.1s-12.7,28.1-28.1,28.1H194c-14.1,21.8-29.7,41.9-41.6,56.2h244.2c46.5,0,84.4-37.9,84.4-84.4
		S443.1,312.2,396.6,312.2z M396.6,87.2c15.6,0,28.1,12.6,28.1,28.1s-12.6,28.1-28.1,28.1s-28.1-12.6-28.1-28.1
		S381.1,87.2,396.6,87.2z M115.4,256C68.8,256,31,293.8,31,340.4S115.4,481,115.4,481s84.4-94,84.4-140.6S162,256,115.4,256z
		 M115.4,368.5c-15.6,0-28.1-12.6-28.1-28.1s12.6-28.1,28.1-28.1s28.1,12.6,28.1,28.1S130.9,368.5,115.4,368.5z"/>
</g>
</svg>
